<?xml version="1.0" encoding="UTF-8" standalone="no"?>
<!DOCTYPE svg PUBLIC "-//W3C//DTD SVG 1.1//EN" "http://www.w3.org/Graphics/SVG/1.1/DTD/svg11.dtd">
<svg width="100%" height="100%" viewBox="0 0 323 323" version="1.1" xmlns="http://www.w3.org/2000/svg" xmlns:xlink="http://www.w3.org/1999/xlink" xml:space="preserve" xmlns:serif="http://www.serif.com/" style="fill-rule:evenodd;clip-rule:evenodd;stroke-linejoin:round;stroke-miterlimit:2;">
    <g transform="matrix(1,0,0,1,-684.632281,-1763.290055)">
        <g id="logo-sheet.png" transform="matrix(1,0,0,1,665,1743)">
            <path d="M253.825,212.5C253.856,252.774 251.255,269.219 267.821,281.032C282.441,291.457 304.964,283.81 301.413,288.458C300.531,289.612 281.867,308.824 264.254,319.087C256.751,323.46 235.553,336.522 202.458,341.174C199.163,341.637 197.702,341.803 198.28,338.467C199.061,333.956 200.027,326.66 203.574,325.81C221.899,321.419 234.927,320.202 264.578,300.605C270.566,296.648 258.068,297.132 247.807,282.263C243.895,276.593 243.138,291.692 222.404,299.237C214.716,302.035 189.191,301.6 183.833,332.556C183.449,334.775 183.983,342.356 179.498,342.43C108.725,343.599 59.197,289.357 59.9,287.532C61.132,284.335 114.667,290.922 139.374,283.099C235.833,252.554 229.125,93.454 126.446,76.872C117.817,75.478 68.689,75.818 61.527,76.206C59.994,76.289 59.284,75.198 60.729,73.675C68.633,65.341 104.115,26.101 167.517,20.719C181.18,19.559 181.748,20.838 182.369,23.529C184.168,31.336 184.42,55.398 212.574,61.114C245.988,67.897 242.566,86.712 247.356,81.37C254.511,73.389 253.536,72.31 262.792,66.985C265.858,65.221 268.21,64.713 265.358,62.683C231.54,38.609 202.116,38.727 200.885,35.335C195.967,21.776 199.398,21.344 200.502,21.46C261.164,27.833 301.985,73.025 301.583,75.541C301.269,77.503 262.915,68.402 254.883,101.59C254.16,104.577 253.779,104.517 253.825,212.5ZM99.986,59.737C100.617,60.284 100.076,60.549 100.668,61.062C100.721,61.109 100.784,61.163 101.554,61.097C172.471,54.974 215.772,109.624 221.793,162.464C233.262,263.11 155.823,308.788 102.521,301.777C95.553,300.86 107.802,307.502 108.748,308.068C133.013,322.595 166.412,327.97 168.437,326.409C170.156,325.084 175.161,293.801 208.575,286.885C240.089,280.363 238.483,260.486 238.44,233.5C238.244,110.037 239.281,106.029 236.514,98.495C226.737,71.871 206.702,80.491 189.783,68.1C172.115,55.161 169.396,38.492 169.084,37.644C167.671,33.795 142.765,39.682 126.636,45.843C116.204,49.828 100.216,59.524 99.986,59.737Z" style="fill:rgb(2,2,2);"/>
            <path d="M191.747,193.528C190.705,200.327 187.291,243.685 145.367,264.216C130.022,271.73 118.233,271.776 79.5,271.519C75.878,271.495 76.613,269.536 76.613,244.5C76.618,92.658 76.535,92.221 77.607,91.756C78.238,91.482 116.663,91.289 121.449,91.952C163.315,97.75 196.893,132.308 191.747,193.528ZM176.761,189.524C176.807,188.174 176.982,186.83 177.028,185.48C178.624,138.667 150.373,108.012 114.492,106.77C93.105,106.03 92.513,106.656 92.134,108.408C92.016,108.949 92.092,252.664 92.108,253.529C92.158,256.316 94.54,256.189 109.499,256.053C169.91,255.501 175.383,199.681 176.761,189.524Z" style="fill:rgb(2,2,2);"/>
            <path d="M326.742,182.503C325.42,130.69 308.38,111.123 296.617,93.44C295.39,91.596 297.277,91.273 312.496,91.577C317.291,91.673 326.944,112.517 331.016,122.688C349.283,168.306 344.771,227.157 315.579,269.558C314.753,270.758 313.853,272.065 297.482,271.576C294.087,271.474 297.008,269.79 300.505,264.503C322.001,232.009 325.7,209.153 326.742,182.503Z" style="fill:rgb(2,2,2);"/>
            <path d="M35.737,164.527C35.207,170.515 27.981,219.238 62.876,267.232C63.35,267.884 66.247,270.391 64.492,271.484C64.375,271.557 49.055,271.452 48.518,271.371C42.171,270.414 -2.032,195.61 32.984,116.712C44.112,91.636 47.097,91.616 49.502,91.6C61.41,91.518 66.252,90.971 64.645,93.572C58.402,103.68 42.718,118.572 35.737,164.527Z" style="fill:rgb(2,2,2);"/>
            <path d="M284.818,153.5C284.848,176.264 284.834,269.125 284.787,269.559C284.422,272.901 269.23,270.411 269.19,252.501C269.163,240.98 268.876,114.951 269.3,108.49C270.311,93.099 284.609,90.232 284.784,93.431C285.046,98.229 284.844,98.213 284.818,153.5Z"/>
        </g>
    </g>
</svg>
